<svg xmlns="http://www.w3.org/2000/svg" width="50" height="50">
    <path d="M25 2C12.31 2 2 12.31 2 25s10.31 23 23 23 23-10.31 23-23S37.69 2 25 2zm0 2c11.61 0 21 9.39 21 21s-9.39 21-21 21S4 36.61 4 25 13.39 4 25 4zm0 3C15.059 7 7 15.059 7 25s8.059 18 18 18 18-8.059 18-18S34.941 7 25 7zm1.008 6h2.787l-.686 2h1.055l.686-2h2.88l-.802 2.453c3.556.338 8.993 2.043 4.166 10.627-2.687 4.78-7.17 6.97-11.315 7.936L24.03 36h-2.787l.668-2h-1.055l-.668 2h-2.88l.443-1.031h-.006l.393-.953-2.934-.01L20.471 21h5.273l-3.494 9.596s3.79.163 6.986-3.034C32.341 24.459 33.622 19 28.711 19H15l2.076-4h8.16l.772-2z" fill="#e74cdd" />
  </svg>